<svg xmlns="http://www.w3.org/2000/svg" width="16" height="16" viewBox="0 0 24 24" aria-hidden="true"
    class="svg-icon svg-icon-arrow">
    <path
        d="M22.542 11.142l-8.15-5.948c-.415-.326-1.127-.217-1.411.16a.961.961 0 00-.238.714c.023.283.167.543.422.75l5.688 4.162H2.028c-.557 0-1.028.463-1.028 1.012 0 .548.471 1.011 1.028 1.011h16.833l-5.679 4.185a.987.987 0 00-.436.693.934.934 0 00.211.721 1.035 1.035 0 001.421.201l8.155-5.955c.282-.19.457-.51.467-.855a1.063 1.063 0 00-.458-.851z" />
</svg>