<svg xmlns="http://www.w3.org/2000/svg"
     width="100px"
     height="100px"
     viewBox="0 0 100 100">
    <path d="M82.3 41.7A32.3 32.3 0 1 0 25 62v14.7a2.6 2.6 0 1 0 5.2 0V67a32.1 32.1 0 0 0 39.7 0v9.6a2.6 2.6 0 1 0 5.2 0V62a32 32 0 0 0 7.2-20.3zM36.6 61.2 38 66a27.2 27.2 0 0 1-6.8-4.9zm.6-5.3H27a26.9 26.9 0 0 1-3.9-11.3l7.6-5.6 7.2 2.2 3.1 9.6zM25.6 30.2l1.6 4.9-4 3c.4-2.8 1.2-5.4 2.4-7.9zm20.2 18.4-2.6-8.1 6.8-5 6.8 5-2.6 8zM62.2 41l6.5-2 8.1 5.8a25 25 0 0 1-3.8 11H62.9l-3.9-5zm14.6-2.7L72.3 35l1.8-5.5a28 28 0 0 1 2.7 8.8zM63.4 61.2h5.4c-2 2-4.4 3.6-7 4.8zm7-37.1-3.2 9.8-7.3 2.4-7.3-5.3v-8l8.2-6c3.7 1.6 7 4 9.6 7zm-15.8-9L50 18.4l-4.6-3.3c3-.5 6.1-.5 9.2 0zM39.2 17l8.2 6v8l-7.5 5.4-7.6-2.4-3.1-9.5c2.7-3.2 6-5.8 10-7.5zm5 51.1-2.8-9 3.8-5.3h9.6l3.9 5.2-3 9.1a26.7 26.7 0 0 1-11.4 0zM42 76a2.6 2.6 0 0 0-2.7 2.6v6a2.6 2.6 0 1 0 5.2 0v-6A2.6 2.6 0 0 0 42 76zm14.2 1.7a2.6 2.6 0 0 0-2.6 2.6v7.1a2.6 2.6 0 0 0 5.2 0v-7a2.6 2.6 0 0 0-2.6-2.7z" />
</svg>