<svg xmlns="http://www.w3.org/2000/svg" width="16" height="16" viewBox="0 0 16 16" aria-hidden="true"
    class="svg-icon svg-icon-search">
    <path
        d="M13.801 12.865l-2.942-2.946a4.914 4.914 0 00-.444-6.47A4.896 4.896 0 006.928 2a4.89 4.89 0 00-3.485 1.449 4.943 4.943 0 000 6.981 4.886 4.886 0 003.485 1.446 4.838 4.838 0 002.976-1.003l2.959 2.931c.133.13.297.196.479.196a.691.691 0 00.476-.196.675.675 0 00-.017-.939zm-6.856-2.321c-.97 0-1.858-.38-2.548-1.053C3 8.091 3 5.803 4.396 4.387c.674-.675 1.579-1.054 2.549-1.054s1.858.378 2.548 1.054c.691.674 1.053 1.58 1.053 2.552a3.62 3.62 0 01-1.053 2.552 3.537 3.537 0 01-2.548 1.053z" />
</svg>