<svg xmlns="http://www.w3.org/2000/svg" width="1500" height="700" viewBox="0 0 1500 700" focusable="false"
    aria-hidden="true" class="svg-icon svg-icon-arrow">
    <path
        d="M1283.6 307.493H675.333c-35.891 0-559.146-15.114-606.373-1.891-28.333 5.667-49.115 37.781-34 71.781 17 41.558 137.907 28.334 211.573 28.334 196.453 0 392.92 7.557 593.146 7.557l455.254-3.775c-37.781 71.781-207.787 188.906-130.344 243.68 47.224 35.891 73.672-15.114 90.672-34 68.005-77.448 122.786-145.453 185.119-226.68 75.563-100.12-7.557-90.672-147.346-215.347-26.448-24.558-130.345-132.229-143.574-137.907-37.781-18.891-75.563 11.334-71.781 51.006 3.776 49.114 196.453 198.347 205.907 217.24l.014.002z" />
</svg>