<svg xmlns="http://www.w3.org/2000/svg" width="16" height="16" viewBox="0 0 16 16" aria-hidden="true"
    class="svg-icon svg-icon-menu">
    <path
        d="M14.052 12.032H1.948c-.419 0-.761.357-.761.796s.341.795.761.795h12.104c.42 0 .761-.356.761-.795s-.341-.796-.761-.796zM1.948 3.968h12.104c.42 0 .761-.357.761-.795s-.341-.795-.761-.795H1.948c-.419 0-.761.356-.761.795s.342.795.761.795zM14.052 7.205H1.948c-.419 0-.76.357-.76.795s.341.795.761.795h12.104c.42 0 .761-.356.761-.795s-.342-.795-.762-.795z" />
</svg>