<svg width="16" height="16" viewBox="0 0 1200 1200" xmlns="http://www.w3.org/2000/svg" aria-hidden="true"
    class="svg-icon svg-icon-search">
    <path
        d="M1044 975.6L829.2 760.8c108-140.4 97.199-343.2-32.398-471.6-70.801-70.801-162-105.6-254.4-105.6-92.398 0-183.6 34.801-254.4 105.6-140.4 140.4-140.4 368.4 0 508.8 70.801 70.801 162 105.6 254.4 105.6 76.801 0 153.6-24 217.2-73.199l216 213.6c9.602 9.602 21.602 14.398 34.801 14.398 12 0 25.199-4.8 34.801-14.398 17.996-18 17.996-49.199-1.203-68.398zM543.6 806.4c-70.801 0-135.6-27.602-186-76.801-102-102-102-268.8 0-372 49.199-49.199 115.2-76.801 186-76.801 70.801 0 135.6 27.602 186 76.801 50.398 49.199 76.801 115.2 76.801 186 0 70.801-27.602 135.6-76.801 186-49.203 50.402-116.4 76.801-186 76.801z" />
</svg>